<svg aria-label="Skoro jasno" class="b_r atm-icon__forecast_state_mostly-sunny_day c_d- b_r atm-icon__forecast_state_mostly-sunny_day c_d-" role="img" viewBox="0 0 32 32" xmlns="http://www.w3.org/2000/svg"><title>Skoro jasno</title><g data-name="icon" fill="none" stroke-width="2"><path d="M10.29 13a7 7 0 1 1 11.24 7.34" stroke="#eb9d05" stroke-miterlimit="10"></path><path d="M17 4V1M9.22 7.22L7.1 5.1M24.78 22.78l2.12 2.12M28 15h3M24.78 7.22L26.9 5.1" stroke="#eb9d05" stroke-linecap="round" stroke-miterlimit="10"></path><path d="M15 24a4.58 4.58 0 0 1 3-1 4 4 0 0 1 0 8H5a4 4 0 0 1-.89-7.89A5.8 5.8 0 0 1 4 22a6 6 0 0 1 12 0 2.56 2.56 0 0 1-1 2" stroke="#738099" stroke-linecap="round" stroke-linejoin="round"></path></g></svg>